<svg xmlns="http://www.w3.org/2000/svg" viewBox="0 0 116 116" xmlns:xlink="http://www.w3.org/1999/xlink"><defs><path id="a" d="M6.218 24.2c2.404 0 7.226 1.68 7.226 1.68S17.337 24.2 20 24.2c1.803 0 6.89 1.68 6.89 1.68s4.492-1.68 6.72-1.68c2.27 0 6.723 1.68 6.723 1.68s5.263-1.68 7.9-1.68c1.845 0 5.545 1.68 5.545 1.68C53.778 11.588 41.738 0 26.888 0 12.04 0 0 11.587 0 25.88c0 0 4.14-1.68 6.218-1.68z"/><path id="b" d="M.504.39h2l.5 4h-3l.5-4z"/></defs><g fill="none" fill-rule="evenodd"><path fill="#1994f9" d="M58 115.6c31.812 0 57.6-25.788 57.6-57.6S89.812.4 58 .4.4 26.188.4 58s25.788 57.6 57.6 57.6z"/><use stroke="#FFF" stroke-width="3" xlink:href="#a" transform="translate(31.61 34.628)"/><use fill="#FFF" xlink:href="#b" transform="translate(56.996 30.61)"/><path stroke="#FFF" stroke-width="3" d="M58.5 60.172V82.61c0 1.994-1.617 3.61-3.613 3.61s-3.613-1.618-3.613-3.612v-.59"/></g></svg>
