<?xml version="1.0" encoding="UTF-8"?>
<svg width="64px" height="64px" viewBox="0 0 64 64" version="1.1" xmlns="http://www.w3.org/2000/svg" xmlns:xlink="http://www.w3.org/1999/xlink">
    <!-- Generator: Sketch 42 (36781) - http://www.bohemiancoding.com/sketch -->
    <title>icon-notifications</title>
    <desc>Created with Sketch.</desc>
    <defs></defs>
    <g id="Page-1" stroke="none" stroke-width="1" fill="none" fill-rule="evenodd">
        <g id="simple-rain.com" transform="translate(-592.000000, -900.000000)">
            <g id="icon-notifications" transform="translate(592.000000, 900.000000)">
                <circle id="Oval-1-Copy" fill="#99D959" cx="32" cy="32" r="32"></circle>
                <path d="M43.7529591,37.0720987 C43.6472776,36.9682197 43.5359599,36.8743017 43.4204148,36.7803837 C42.946962,36.3904817 42.3565551,35.9038157 42.2297373,32.652261 C41.7281028,23.0882787 37.5022545,21.6453568 35.9113967,21.1031938 C35.7958517,21.0633498 35.6972156,21.0306208 35.621125,20.9993149 C34.6474467,20.5937599 34.4529929,20.2821229 34.3134934,20.0544429 C34.1274941,19.7114999 33.7385864,19 32.5,19 C31.2600045,19 30.8710968,19.7129229 30.6315522,20.1497839 C30.5470071,20.2821229 30.3511442,20.5937599 29.3774659,20.9993149 C29.3013753,21.0306208 29.2027393,21.0633498 29.0886033,21.1031938 C27.4963364,21.6453568 23.2718972,23.0882787 22.7688536,32.662222 C22.6420358,35.9052387 22.0516289,36.3904817 21.5781761,36.7803837 C21.462631,36.8743017 21.3513133,36.9682197 21.2033593,37.1147887 C20.557998,37.7594076 20,38.3158006 20,39.6263835 C20,40.6153684 20.7482246,41.9031833 22.857626,42.2774323 C23.3888513,42.3713503 25.4728892,42.7157162 28.2008793,42.9320122 C28.6602412,44.4162011 30.5272799,46 32.5,46 C34.5178108,46 36.4863037,44.3678191 36.8949386,42.9234742 C39.5764288,42.7071782 41.616785,42.3699273 42.1409649,42.2774323 C44.2517754,41.9031833 45,40.6153684 45,39.6263835 C45,38.3158006 44.442002,37.7594076 43.7529591,37.0720987 L43.7529591,37.0720987 Z M32.5,44.5770001 C31.3628678,44.5770001 30.3187352,43.7673132 29.8156916,43.0358912 C30.6794612,43.0800042 31.5728216,43.1127332 32.5,43.1127332 C33.4680419,43.1127332 34.4022658,43.0785812 35.2998535,43.0301992 C34.8151279,43.7203542 33.7371773,44.5770001 32.5,44.5770001 L32.5,44.5770001 Z M41.8971931,40.8743544 C41.1306504,41.0109624 37.0696652,41.6897333 32.5,41.6897333 C27.9289257,41.6897333 23.8693496,41.0109624 23.1013978,40.8743544 C21.9318566,40.6680194 21.4090858,40.0988194 21.4090858,39.6263835 C21.4090858,38.9106145 21.6218577,38.6971645 22.2362191,38.0852746 C22.3094916,38.0127016 22.3869913,37.9486666 22.4687183,37.8832086 C23.3198061,37.1816697 24.0356217,36.3093707 24.1765303,32.72768 C24.6274377,24.1270686 28.196652,22.9089807 29.5395108,22.4507747 C29.6888739,22.3995467 29.8142825,22.3554338 29.9143276,22.3141668 C31.136005,21.8061558 31.562958,21.3209128 31.8208207,20.9125119 L31.9180476,20.7417519 C32.0448653,20.5098029 32.0927742,20.4229999 32.5,20.4229999 C32.9058167,20.4229999 32.9537256,20.5098029 33.0805433,20.7417519 L33.1791793,20.9125119 C33.435633,21.3194898 33.862586,21.8061558 35.0842633,22.3141668 C35.1843084,22.3554338 35.3111261,22.3995467 35.4604892,22.4507747 C36.803348,22.9089807 40.3711532,24.1270686 40.8220606,32.719142 C40.9629692,36.3093707 41.6787848,37.1816697 42.5298726,37.8832086 C42.6115996,37.9486666 42.6905084,38.0127016 42.8060534,38.1279646 C43.3767332,38.6971645 43.5909142,38.9106145 43.5909142,39.6263835 C43.5909142,40.0988194 43.0667343,40.6680194 41.8971931,40.8743544 L41.8971931,40.8743544 Z" id="bell" fill="#FFFFFF"></path>
            </g>
        </g>
    </g>
</svg>