<?xml version="1.0" encoding="UTF-8"?>
<svg width="64px" height="64px" viewBox="0 0 64 64" version="1.1" xmlns="http://www.w3.org/2000/svg" xmlns:xlink="http://www.w3.org/1999/xlink">
    <!-- Generator: Sketch 42 (36781) - http://www.bohemiancoding.com/sketch -->
    <title>icon-location</title>
    <desc>Created with Sketch.</desc>
    <defs></defs>
    <g id="Page-1" stroke="none" stroke-width="1" fill="none" fill-rule="evenodd">
        <g id="simple-rain.com" transform="translate(-912.000000, -900.000000)">
            <g id="icon-location" transform="translate(912.000000, 900.000000)">
                <path d="M32,64 C49.673112,64 64,49.673112 64,32 C64,14.326888 49.673112,0 32,0 C14.326888,0 0,14.326888 0,32 C0,49.673112 14.326888,64 32,64 Z" id="Oval-1-Copy-2" fill="#9012FE"></path>
                <path d="M32.5387958,48 C29.4859207,48 20,37.6490128 20,28.5235214 C20,21.6172092 25.6077535,16 32.5007054,16 C39.3936572,16 45,21.6172092 45,28.5235214 C45,37.6490128 35.5719203,48 32.5387958,48 L32.5387958,48 Z M32.5007054,17.41349 C26.3864906,17.41349 21.4107556,22.3974557 21.4107556,28.5235214 C21.4107556,37.0850303 30.7005812,46.58651 32.5387958,46.58651 C34.3643135,46.58651 43.5892444,37.0850303 43.5892444,28.5235214 C43.5892444,22.3974557 38.6149202,17.41349 32.5007054,17.41349 L32.5007054,17.41349 Z M32.5007054,34.7075401 C29.1219457,34.7075401 26.372383,31.9540616 26.372383,28.5673395 C26.372383,25.182031 29.1219457,22.427139 32.5007054,22.427139 C35.879465,22.427139 38.627617,25.182031 38.627617,28.5673395 C38.627617,31.9540616 35.879465,34.7075401 32.5007054,34.7075401 L32.5007054,34.7075401 Z M32.5007054,23.840629 C29.8992721,23.840629 27.7831386,25.960864 27.7831386,28.5673395 C27.7831386,31.1738151 29.8992721,33.2940501 32.5007054,33.2940501 C35.1021387,33.2940501 37.2182721,31.1738151 37.2182721,28.5673395 C37.2182721,25.960864 35.1021387,23.840629 32.5007054,23.840629 L32.5007054,23.840629 Z" id="location" fill="#FFFFFF"></path>
            </g>
        </g>
    </g>
</svg>