<?xml version="1.0" encoding="UTF-8"?>
<svg width="64px" height="64px" viewBox="0 0 64 64" version="1.1" xmlns="http://www.w3.org/2000/svg" xmlns:xlink="http://www.w3.org/1999/xlink">
    <!-- Generator: Sketch 42 (36781) - http://www.bohemiancoding.com/sketch -->
    <title>icon-umbrella</title>
    <desc>Created with Sketch.</desc>
    <defs></defs>
    <g id="Page-1" stroke="none" stroke-width="1" fill="none" fill-rule="evenodd">
        <g id="simple-rain.com" transform="translate(-272.000000, -900.000000)">
            <g id="icon-umbrella" transform="translate(272.000000, 900.000000)">
                <path d="M32,64 C49.673112,64 64,49.673112 64,32 C64,14.326888 49.673112,0 32,0 C14.326888,0 0,14.326888 0,32 C0,49.673112 14.326888,64 32,64 Z" id="Oval-1" fill="#1FCDA6"></path>
                <path d="M32.6796683,33.6988144 C32.699308,33.6789949 35.3899396,31.3516192 37.3777525,31.3516192 C38.5126436,31.3516192 39.7036479,31.8442753 40.4106752,32.6087418 C41.0517694,33.3010087 42.2596077,33.3024243 42.9021047,32.6073261 C43.9822853,31.4436383 45.6853233,31.0430012 47.1414629,31.6135197 C48.2146293,32.0424704 49.3242694,31.013272 48.9118368,29.8963015 C46.5452593,23.4875243 40.9016664,18.9969917 34.1666702,18.1773137 C34.1330022,18.1744824 33.5213675,18.1178552 32.6796683,18.0895417 L32.6796683,16.7078393 C32.6796683,16.317112 32.365434,16 31.9782524,16 C31.5910707,16 31.2768364,16.317112 31.2768364,16.7078393 L31.2768364,18.088126 C30.7171064,18.1022828 30.1952529,18.1305964 29.7533609,18.1872235 C23.0520327,19.0465404 17.4336907,23.5455672 15.0881557,29.9260308 C14.6715146,31.0585737 15.8092113,32.0594585 16.8753636,31.6319236 C18.3371145,31.0387542 20.0555836,31.4252345 21.1483897,32.590338 C21.7880811,33.2712794 22.9903081,33.2755265 23.6285966,32.5931694 C24.3987513,31.7706601 25.4410555,31.4025836 27.0080188,31.4025836 C28.4290875,31.4025836 30.9822417,33.3618829 31.2768364,33.6889046 L31.2768364,44.136613 C31.2768364,46.5050434 32.9924998,48 35.0490515,48 C36.8923727,48 38.7567363,46.7131481 38.7567363,44.2541143 C38.7567363,43.863387 38.4439048,43.546275 38.0567232,43.546275 C37.6681387,43.546275 37.3539044,43.863387 37.3539044,44.2541143 C37.3539044,44.9846045 37.1112144,45.5876836 36.6510856,46.0024774 C35.4376359,47.0953813 32.6796683,46.7103168 32.6796683,44.136613 L32.6796683,33.6988144 L32.6796683,33.6988144 Z M31.9586127,33.8205627 C31.9670297,33.8205627 31.9740439,33.8262254 31.9838637,33.8262254 C31.981058,33.8262254 31.9796552,33.8276411 31.9782524,33.8276411 C31.9712382,33.8276411 31.9656269,33.8219784 31.9586127,33.8205627 L31.9586127,33.8205627 Z M41.8780374,31.6418333 C41.7237259,31.8074677 41.589054,31.806052 41.4347425,31.643249 C40.4611771,30.5899841 38.9068393,29.9359405 37.3777525,29.9359405 C34.7656794,29.9359405 32.3219462,32.2831357 32.2995009,32.3072023 C32.1620233,32.4459388 31.7874672,32.4331977 31.6401699,32.2859671 C31.6177245,32.2619005 29.2343131,29.986905 27.0080188,29.986905 C25.0482625,29.986905 23.6510419,30.506459 22.6087378,31.6205981 C22.4544263,31.7805698 22.3169487,31.7763228 22.1668457,31.6163511 C21.1497926,30.5333569 19.7820314,29.9359405 18.3118635,29.9359405 C17.6371014,29.9359405 16.9777704,30.0647673 16.4026093,30.418687 C18.5657761,24.5337108 23.7492402,20.3857724 29.9301177,19.5915767 C30.4519712,19.5250398 31.0804399,19.4910635 31.8000927,19.4910635 C32.9896942,19.4910635 34.0151643,19.5844983 34.01797,19.5844983 C40.211473,20.339055 45.4145767,24.4799151 47.649288,30.2955229 C45.6684893,29.5140683 43.3425939,30.0576889 41.8780374,31.6418333 L41.8780374,31.6418333 Z" id="umbrella" fill="#FFFFFF" transform="translate(32.000000, 32.000000) scale(-1, 1) translate(-32.000000, -32.000000) "></path>
            </g>
        </g>
    </g>
</svg>